{
	"asset":{
		"generator":"Khronos glTF Blender I/O v4.1.63",
		"version":"2.0"
	},
	"extensionsUsed":[
		"KHR_materials_specular"
	],
	"scene":0,
	"scenes":[
		{
			"name":"Scene",
			"nodes":[
				2
			]
		}
	],
	"nodes":[
		{
			"mesh":0,
			"name":"Glass"
		},
		{
			"children":[
				0
			],
			"mesh":1,
			"name":"Door"
		},
		{
			"children":[
				1
			],
			"mesh":2,
			"name":"Spaceship",
			"rotation":[
				0.7071068286895752,
				0,
				0,
				0.7071068286895752
			],
			"scale":[
				0.009999999776482582,
				0.009999999776482582,
				0.009999999776482582
			]
		}
	],
	"materials":[
		{
			"doubleSided":true,
			"emissiveTexture":{
				"index":0
			},
			"name":"glass",
			"normalTexture":{
				"index":1
			},
			"pbrMetallicRoughness":{
				"baseColorTexture":{
					"index":2
				},
				"metallicRoughnessTexture":{
					"index":3
				},
				"roughnessFactor":0.5
			}
		},
		{
			"doubleSided":true,
			"emissiveFactor":[
				1,
				1,
				1
			],
			"emissiveTexture":{
				"index":4
			},
			"extensions":{
				"KHR_materials_specular":{
					"specularColorFactor":[
						2.0,
						2.0,
						2.0
					]
				}
			},
			"name":"bodySpaceship",
			"normalTexture":{
				"index":5
			},
			"pbrMetallicRoughness":{
				"baseColorTexture":{
					"index":6
				},
				"metallicRoughnessTexture":{
					"index":7
				},
				"roughnessFactor":0.7487671971321106
			}
		}
	],
	"meshes":[
		{
			"name":"Mesh.002",
			"primitives":[
				{
					"attributes":{
						"POSITION":0,
						"NORMAL":1,
						"TEXCOORD_0":2
					},
					"indices":3,
					"material":0
				}
			]
		},
		{
			"name":"Mesh.001",
			"primitives":[
				{
					"attributes":{
						"POSITION":4,
						"NORMAL":5,
						"TEXCOORD_0":6
					},
					"indices":7,
					"material":1
				}
			]
		},
		{
			"name":"Mesh",
			"primitives":[
				{
					"attributes":{
						"POSITION":8,
						"NORMAL":9,
						"TEXCOORD_0":10
					},
					"indices":11,
					"material":1
				}
			]
		}
	],
	"textures":[
		{
			"sampler":0,
			"source":0
		},
		{
			"sampler":0,
			"source":1
		},
		{
			"sampler":0,
			"source":2
		},
		{
			"sampler":0,
			"source":3
		},
		{
			"sampler":0,
			"source":0
		},
		{
			"sampler":0,
			"source":1
		},
		{
			"sampler":0,
			"source":2
		},
		{
			"sampler":0,
			"source":3
		}
	],
	"images":[
		{
			"mimeType":"image/png",
			"name":"Emissive.tga",
			"uri":"Emissive_tga.png"
		},
		{
			"mimeType":"image/png",
			"name":"Spaceship_nmap.tga",
			"uri":"Spaceship_nmap_tga.png"
		},
		{
			"mimeType":"image/png",
			"name":"Spaceship_albedo.tga",
			"uri":"Spaceship_albedo_tga.png"
		},
		{
			"mimeType":"image/png",
			"name":"Spaceship_metalness.tga",
			"uri":"Spaceship_metalness_tga.png"
		}
	],
	"accessors":[
		{
			"bufferView":0,
			"componentType":5126,
			"count":28,
			"max":[
				43.92620849609375,
				61.440799713134766,
				-136.36483764648438
			],
			"min":[
				-43.92620849609375,
				-90.177978515625,
				-226.55979919433594
			],
			"type":"VEC3"
		},
		{
			"bufferView":1,
			"componentType":5126,
			"count":28,
			"type":"VEC3"
		},
		{
			"bufferView":2,
			"componentType":5126,
			"count":28,
			"type":"VEC2"
		},
		{
			"bufferView":3,
			"componentType":5123,
			"count":84,
			"type":"SCALAR"
		},
		{
			"bufferView":4,
			"componentType":5126,
			"count":105,
			"max":[
				44.720001220703125,
				61.440799713134766,
				-136.36483764648438
			],
			"min":[
				-44.720001220703125,
				-159.73976135253906,
				-228.3066864013672
			],
			"type":"VEC3"
		},
		{
			"bufferView":5,
			"componentType":5126,
			"count":105,
			"type":"VEC3"
		},
		{
			"bufferView":6,
			"componentType":5126,
			"count":105,
			"type":"VEC2"
		},
		{
			"bufferView":7,
			"componentType":5123,
			"count":348,
			"type":"SCALAR"
		},
		{
			"bufferView":8,
			"componentType":5126,
			"count":4376,
			"max":[
				308.217041015625,
				428.56005859375,
				-20.563919067382812
			],
			"min":[
				-308.217041015625,
				-428.56005859375,
				-259.298828125
			],
			"type":"VEC3"
		},
		{
			"bufferView":9,
			"componentType":5126,
			"count":4376,
			"type":"VEC3"
		},
		{
			"bufferView":10,
			"componentType":5126,
			"count":4376,
			"type":"VEC2"
		},
		{
			"bufferView":11,
			"componentType":5123,
			"count":16002,
			"type":"SCALAR"
		}
	],
	"bufferViews":[
		{
			"buffer":0,
			"byteLength":336,
			"byteOffset":0,
			"target":34962
		},
		{
			"buffer":0,
			"byteLength":336,
			"byteOffset":336,
			"target":34962
		},
		{
			"buffer":0,
			"byteLength":224,
			"byteOffset":672,
			"target":34962
		},
		{
			"buffer":0,
			"byteLength":168,
			"byteOffset":896,
			"target":34963
		},
		{
			"buffer":0,
			"byteLength":1260,
			"byteOffset":1064,
			"target":34962
		},
		{
			"buffer":0,
			"byteLength":1260,
			"byteOffset":2324,
			"target":34962
		},
		{
			"buffer":0,
			"byteLength":840,
			"byteOffset":3584,
			"target":34962
		},
		{
			"buffer":0,
			"byteLength":696,
			"byteOffset":4424,
			"target":34963
		},
		{
			"buffer":0,
			"byteLength":52512,
			"byteOffset":5120,
			"target":34962
		},
		{
			"buffer":0,
			"byteLength":52512,
			"byteOffset":57632,
			"target":34962
		},
		{
			"buffer":0,
			"byteLength":35008,
			"byteOffset":110144,
			"target":34962
		},
		{
			"buffer":0,
			"byteLength":32004,
			"byteOffset":145152,
			"target":34963
		}
	],
	"samplers":[
		{
			"magFilter":9729,
			"minFilter":9987
		}
	],
	"buffers":[
		{
			"byteLength":177156,
			"uri":"spaceship.bin"
		}
	]
}
